# xmcd CD database file
# Copyright (C) 1995-1998 Ti Kan
#
# Track frame offsets:
#	150
#	23040
#	43915
#	62004
#	83915
#	101262
#	118311
#	136793
#	163226
#	175611
#
# Disc length: 2707 seconds
#
# Revision: 1
# Processed by: cddbd v1.4PL0 Copyright (c) Steve Scherf et al.
# Submitted via: CDex 1.30Release
#
DISCID=7e0a910a
DTITLE=Mudcat - MUD, SWEAT, and BEERS
DYEAR=1999
DGENRE=Blues
TTITLE0=Rattlesnake
TTITLE1=Marie
TTITLE2=First Day of May
TTITLE3=True Love
TTITLE4=Fly Little Bird
TTITLE5=Savanna Mama
TTITLE6=Pride
TTITLE7=Long Haired Donney
TTITLE8=Viper
TTITLE9=Differenee
EXTD=YEAR: 1999 ID3G:   0
EXTT0=
EXTT1=
EXTT2=
EXTT3=
EXTT4=
EXTT5=
EXTT6=
EXTT7=
EXTT8=
EXTT9=
PLAYORDER=
